<?xml version="1.0" encoding="UTF-8"?>
<svg id="Layer_2" data-name="Layer 2" xmlns="http://www.w3.org/2000/svg" viewBox="0 0 52.3 58.07">
  <defs>
    <style>
      .cls-1 {
        fill: #fff;
      }
    </style>
  </defs>
  <g id="Layer_1-2" data-name="Layer 1">
    <g>
      <path class="cls-1" d="M12.97,16.08c.08.95.92,1.67,1.87,1.59.95-.08,1.67-.92,1.59-1.87-.08-.95-.92-1.67-1.87-1.59-.96.08-1.67.92-1.59,1.87M14.63,15.05c.49-.04.92.33.97.82.04.49-.33.92-.82.96-.49.04-.92-.33-.97-.82-.04-.49.33-.93.82-.97"/>
      <path class="cls-1" d="M16.13,12.67c.34.16.71.23,1.04.2h.08c.41-.06.74-.27.88-.59.15-.32.11-.7-.11-1.06-.19-.3-.5-.56-.86-.73-.37-.17-.77-.24-1.11-.2-.42.05-.74.27-.89.59-.15.32-.11.71.11,1.06.19.3.49.56.86.74M15.92,11.23s.11-.09.23-.11h.04c.18-.02.4.03.61.13.22.1.4.26.5.42.06.1.09.2.06.25-.02.05-.11.09-.23.11-.19.02-.42-.02-.65-.13-.22-.1-.4-.26-.5-.42-.06-.1-.09-.2-.06-.25"/>
      <path class="cls-1" d="M13.28,19.21c-.37-.17-.76-.24-1.11-.2-.41.05-.74.26-.89.58-.15.32-.11.7.11,1.06.18.3.49.56.86.73.35.17.71.23,1.03.2.44-.04.8-.24.97-.59.15-.32.11-.7-.11-1.06-.19-.3-.49-.56-.86-.73M13.49,20.64c-.05.11-.43.2-.88-.02-.22-.1-.41-.25-.5-.42-.07-.1-.09-.2-.06-.25.02-.05.11-.09.23-.11h.03c.18-.02.4.03.61.13.22.11.41.26.51.42.06.1.08.2.06.25"/>
      <path class="cls-1" d="M11.18,16.52c-.05-.4-.21-.78-.44-1.04-.27-.32-.63-.47-.98-.43-.67.09-1.1.88-.98,1.79.05.4.21.77.44,1.04.26.3.59.46.93.43.01,0,.03,0,.05,0,.35-.05.65-.29.83-.67.15-.32.2-.72.15-1.12M10.27,17.28c-.05.11-.12.18-.17.19-.05,0-.14-.05-.22-.14-.13-.15-.22-.37-.25-.61-.07-.49.13-.82.25-.84h0c.06,0,.14.05.21.14.13.15.21.37.24.61.03.24,0,.48-.07.65"/>
      <path class="cls-1" d="M17.86,18.48c-.2,0-.41.05-.62.13-.16.06-.31.14-.45.24-.34.23-.6.53-.74.85-.14.31-.15.63-.05.89.02.06.05.12.09.17.22.33.62.48,1.07.44.32-.03.65-.15.97-.36.34-.23.6-.53.74-.85.17-.38.15-.77-.05-1.06-.2-.29-.55-.45-.97-.45M18.1,19.65c-.08.18-.23.35-.44.49-.41.27-.79.25-.87.14-.03-.05-.02-.15.03-.26.08-.18.24-.35.44-.49.2-.14.43-.21.62-.22.12,0,.21.02.25.07.03.05.02.15-.03.26"/>
      <path class="cls-1" d="M11.55,13.4h.1c.33-.04.67-.16.98-.36.76-.52,1.07-1.36.69-1.92-.19-.29-.55-.46-.96-.45-.35,0-.73.14-1.07.36-.77.51-1.07,1.36-.7,1.92.2.29.55.46.97.45M11.75,11.74c.18-.13.39-.2.57-.22h.05c.12,0,.21.02.25.07.07.11-.05.47-.46.75-.2.14-.43.22-.62.22-.12,0-.21-.02-.25-.07-.07-.11.05-.47.46-.75"/>
      <path class="cls-1" d="M49.63,11.53L37.75,1.69c-1.58-1.3-3.56-1.89-5.59-1.63-2.03.25-3.82,1.3-5.03,2.95l-5.89,8.01c-1.63-2.17-4.31-3.48-7.2-3.24-4.5.37-7.86,4.33-7.49,8.83.32,3.95,3.42,7.03,7.22,7.47-.05.64-.05,1.29,0,1.93l.61,6.83c.17,1.85-.33,3.66-1.4,5.16-.68-.34-1.54-.19-2.05.43-.59.7-.49,1.75.2,2.34l-.99,1.19-.06-.05c-.27-.22-.67-.19-.89.08-.22.27-.19.67.08.89l.06.05-1.07,1.29-.06-.05c-.27-.22-.67-.18-.89.09-.22.27-.19.67.08.89l.06.05-1.07,1.29-.06-.05c-.27-.22-.67-.19-.9.08-.22.27-.18.67.09.89l.06.05-1.07,1.29-.06-.05c-.27-.22-.67-.18-.89.09-.22.27-.19.67.08.89l.06.05-.99,1.19c-.71-.57-1.75-.46-2.34.24-.59.71-.49,1.78.22,2.37l5.02,4.16c.71.59,1.78.49,2.37-.22.59-.7.49-1.74-.2-2.34l.99-1.2.06.05c.27.22.67.19.89-.08.22-.27.19-.67-.09-.89l-.06-.05,1.07-1.29.06.05c.27.22.67.19.89-.09.22-.27.19-.67-.08-.89l-.06-.05,1.07-1.29.06.05c.27.22.67.18.89-.08.22-.27.18-.67-.09-.89l-.06-.05,1.07-1.29.06.05c.27.22.67.19.89-.08.22-.27.19-.67-.09-.89l-.06-.05.99-1.2c.71.57,1.75.46,2.34-.24.51-.61.51-1.49.04-2.09,1.28-1.32,2.96-2.15,4.81-2.33l6.82-.68c2.77-.27,5.34-1.55,7.24-3.59l12.87-13.82c1.39-1.5,2.09-3.45,1.96-5.49-.13-2.04-1.08-3.89-2.65-5.19M7.81,16.5c-.31-3.8,2.53-7.15,6.34-7.46,2.59-.21,4.96,1.04,6.31,3.05.26.39.49.8.66,1.24.26.63.43,1.32.49,2.04.31,3.8-2.53,7.15-6.33,7.46h-.04c-.44.04-.87.03-1.29-.02-3.22-.36-5.85-2.96-6.13-6.31M7.03,56.66c-.15.17-.41.2-.58.05l-5.03-4.16c-.18-.15-.2-.41-.06-.58.15-.18.41-.2.58-.06l5.03,4.16c.18.15.2.41.06.58M6.83,54.32l-3.13-2.59.99-1.19,3.13,2.59-.99,1.19ZM8.62,52.15l-3.13-2.59,1.07-1.29,3.13,2.59-1.07,1.28ZM10.5,49.88l-3.13-2.59,1.07-1.29,3.13,2.59-1.07,1.29ZM12.38,47.62l-3.13-2.59,1.06-1.29,3.13,2.59-1.07,1.29ZM14.25,45.35l-3.13-2.59.99-1.19,3.13,2.59-.99,1.19ZM17.58,43.92c-.15.17-.41.2-.58.05l-5.03-4.16c-.18-.15-.2-.41-.06-.58.15-.18.41-.2.58-.06l5.03,4.16c.18.15.2.41.06.58M49.39,21.34l-12.87,13.83c-1.69,1.81-3.97,2.94-6.43,3.19l-6.82.68c-2.17.22-4.15,1.19-5.63,2.75l-3.64-3.01c1.26-1.75,1.84-3.88,1.65-6.05l-.61-6.83c-.05-.6-.05-1.19,0-1.78.11,0,.22,0,.34-.02,4.5-.37,7.86-4.33,7.49-8.82-.09-1.12-.41-2.16-.89-3.1l6.18-8.41c1-1.37,2.48-2.24,4.16-2.44,1.68-.21,3.33.27,4.63,1.35l11.87,9.83c1.31,1.08,2.09,2.61,2.2,4.3.11,1.69-.47,3.31-1.62,4.55"/>
      <path class="cls-1" d="M18.23,15.35c.05.4.21.77.44,1.04.03.04.07.08.11.11.24.23.53.34.82.31h.05c.35-.05.65-.29.83-.67.15-.32.2-.72.15-1.12-.03-.26-.11-.51-.22-.72-.06-.12-.13-.23-.21-.32-.23-.26-.51-.42-.8-.43h0c-.05,0-.11,0-.17,0-.62.08-1.04.76-.99,1.58,0,.07,0,.14.02.21M19.53,14.54c.12.15.21.37.24.61.03.24,0,.48-.07.65-.05.11-.12.18-.17.19-.06,0-.14-.04-.22-.14,0-.01-.02-.02-.02-.03-.11-.15-.19-.35-.22-.57-.07-.49.13-.82.25-.84h0c.05,0,.14.05.21.14"/>
      <path class="cls-1" d="M33.55,35.6c5.38-4.99,10.36-10.4,14.89-16.18-5.38,4.99-10.36,10.4-14.89,16.18"/>
    </g>
  </g>
</svg>