<?xml version="1.0" encoding="UTF-8"?>
<svg id="Layer_2" data-name="Layer 2" xmlns="http://www.w3.org/2000/svg" viewBox="0 0 60.01 51.84">
  <defs>
    <style>
      .cls-1 {
        fill: #fff;
      }
    </style>
  </defs>
  <g id="Layer_1-2" data-name="Layer 1">
    <g>
      <path class="cls-1" d="M60.01,51.84h-1.87v-.74c0-7.79,0-15.59.01-23.38,0-.54-.14-.89-.56-1.23-3.39-2.77-6.76-5.56-10.13-8.34-.12-.1-.24-.18-.44-.32-.33,2.13.01,4.01,1.51,5.52,1.4,1.41,2.89,2.74,4.36,4.09.39.36.59.74.57,1.28-.03.78,0,1.56-.01,2.34,0,.65-.29,1-.92,1.07-1.36.17-2.23.94-2.74,2.17-.58,1.42-.52,2.9-.38,4.39.05.54.16,1.08.25,1.7-.59.12-1.17.24-1.88.38-.14-1.4-.27-2.75-.41-4.15-.46-.04-.96-.08-1.53-.12.03,2.61.28,5.09,1.88,7.21.54.72,1.25,1.24,2.1,1.54.58.2.84.57.83,1.18-.02,1.77,0,3.55,0,5.36h-1.88c0-1.45-.02-2.89.01-4.33,0-.44-.12-.68-.52-.9-1.92-1.04-3.04-2.75-3.57-4.79-.38-1.44-.49-2.95-.71-4.43-.03-.23,0-.46,0-.85-1.09.2-2.13.34-3.14.57-2.08.49-3.97,1.39-5.68,2.67-.31.23-.46.47-.45.87.01,1.8-.06,1.86-1.88,1.86-1.46,0-2.93,0-4.39,0-.88,0-1.28-.34-1.19-1.19.1-.88-.29-1.27-1.03-1.62-2.95-1.41-6.01-2.39-9.26-2.79-.27-.03-.54-.04-.84-.06-.09.97-.15,1.92-.28,2.86-.2,1.5-.64,2.93-1.41,4.25-.68,1.15-1.57,2.1-2.77,2.71-.36.18-.44.41-.44.78.02,1.25,0,2.5,0,3.75,0,.21,0,.42,0,.66h-1.88c0-.73,0-1.45,0-2.17,0-1.09,0-2.19,0-3.28,0-.48.15-.86.61-1.03,1.95-.69,2.97-2.19,3.58-4.06.48-1.46.63-2.96.62-4.54h-1.54c-.14,1.31-.28,2.62-.43,4.01-.68-.13-1.26-.24-1.85-.35.1-.84.21-1.63.28-2.43.11-1.22.03-2.42-.41-3.58-.49-1.29-1.38-2.1-2.8-2.26-.57-.07-.88-.41-.89-.98-.02-.9-.05-1.8.02-2.69.02-.33.24-.7.49-.94,1.47-1.42,3.03-2.77,4.47-4.23,1.46-1.49,1.76-3.36,1.46-5.46-.21.15-.35.24-.47.34-3.44,2.83-6.87,5.67-10.31,8.49-.33.27-.35.57-.35.93,0,7.81,0,15.63,0,23.44,0,.25,0,.5,0,.78H0c0-.21,0-.42,0-.63,0-8.15,0-16.29.01-24.44,0-.35.09-.74.25-1.05,2.01-4.01,4.04-8.01,6.04-12.03.16-.32.25-.7.25-1.05.02-2.99.01-5.98.01-8.97,0-1.43.41-1.73,1.74-1.28.33.11.66.21,1.07.34,0-.5,0-.94,0-1.38.02-.67.35-1.03,1-1.05,6.71-.18,13.22.65,19.23,3.87.95.51,1.57.47,2.48-.11C37.45.65,43.32-.59,49.62.26c.75.1,1.01.4,1.02,1.16,0,.41,0,.81,0,1.29.48-.16.9-.3,1.33-.43.96-.31,1.48.06,1.48,1.06,0,3.09,0,6.17.01,9.26,0,.35.08.74.24,1.06,1.99,4.02,4,8.03,6.01,12.05.08.17.2.32.31.47v25.67ZM11.25,31.22c6.58-.12,12.87.89,18.71,4.03.03-.16.04-.2.04-.24,0-9.4,0-18.79-.01-28.19,0-.19-.18-.47-.36-.56-.79-.43-1.59-.83-2.41-1.2-4.5-2.07-9.26-2.85-14.17-2.92-.59,0-1.19,0-1.75,0v14.58c.46-.38.85-.7,1.25-1.02.86-.7,1.48-.54,1.85.53.93,2.68.7,5.24-.92,7.6-.51.74-1.26,1.32-1.89,1.99-.15.16-.33.37-.33.57-.03,1.58-.02,3.16-.02,4.85ZM48.72,16.77V2.05c-5.35-.8-12.09.87-16.52,4.12-.19.14-.31.48-.31.73-.02,9.18-.01,18.35-.01,27.53,0,.18.02.36.03.61,5.2-3.22,10.77-4.57,16.76-3.97.03-.07.06-.1.06-.14,0-.98-.07-1.96.03-2.93.15-1.32-.28-2.25-1.33-3.1-2.24-1.82-3.18-5.68-1.81-8.93.32-.75.96-.91,1.61-.41.48.37.93.76,1.48,1.2ZM11.71,33.09c.16.44.35.79.41,1.17.08.53.35.62.83.6,5.02-.19,9.74.99,14.23,3.21,1.08.53,1.96,1.14,1.89,2.48h3.72c.08-1.25.23-1.56,1.22-2.3,3.69-2.76,7.88-3.82,12.44-3.6.4.02.81.07,1.19.1.22-.62.43-1.19.64-1.78-.17-.03-.32-.09-.47-.09-1.68.04-3.37-.03-5.02.16-4.09.48-7.79,2.04-11.13,4.44-.48.34-.9.33-1.41.06-.94-.51-1.9-1.01-2.87-1.46-4.95-2.31-10.21-3.04-15.68-2.99ZM51.53,19.03V4.45q-.9.18-.9,1.03c0,4,.03,8-.02,11.99,0,.76.24,1.21.93,1.56ZM8.46,18.99c.71-.34.95-.79.94-1.55-.04-4-.02-8.01-.02-12.01,0-.85-.01-.86-.92-.95v14.51ZM6.56,17.63s-.08-.03-.12-.04c-.86,1.71-1.72,3.41-2.58,5.12.92-.61,1.74-1.28,2.55-1.97.1-.08.14-.27.14-.41.01-.9,0-1.79,0-2.69ZM56.04,22.8s.06-.05.09-.07c-.86-1.71-1.71-3.42-2.57-5.13-.11.97-.12,1.9-.11,2.83,0,.12.06.28.14.35.81.68,1.63,1.36,2.44,2.03ZM9.35,28.01c-.95.62-1.25,1.22-.93,2.19.09.26.56.4.93.64v-2.83ZM50.66,30.77c.34-.18.75-.25.87-.48.39-.75-.06-1.78-.87-2.21v2.69Z"/>
      <path class="cls-1" d="M27.65,10.7c-.33.58-.62,1.08-.93,1.63-1.94-1.08-3.95-1.84-6.08-2.28-2.11-.44-4.24-.63-6.44-.42-.09-.61-.18-1.2-.28-1.86,4.9-.4,9.42.57,13.73,2.94Z"/>
      <path class="cls-1" d="M27.62,15.44c-.31.53-.6,1.03-.88,1.53q-5.85-2.47-12.54-2.71c-.09-.56-.17-1.14-.26-1.7,2.72-.94,10.83.76,13.69,2.89Z"/>
      <path class="cls-1" d="M33.28,29.46c4.3-2.36,8.83-3.35,13.72-2.94-.05.35-.08.64-.12.92-.04.29-.09.58-.15.94-2.16-.2-4.31-.03-6.43.42-2.13.45-4.15,1.19-6.09,2.29-.31-.54-.6-1.04-.93-1.63Z"/>
      <path class="cls-1" d="M47.02,6.92c-.11.68-.19,1.25-.29,1.85-4.44-.3-8.59.56-12.52,2.71-.31-.53-.6-1.03-.93-1.62,4.28-2.36,8.81-3.32,13.74-2.94Z"/>
      <path class="cls-1" d="M45.91,13.39h-1.79v-1.82h1.79v1.82Z"/>
    </g>
  </g>
</svg>