<?xml version="1.0" encoding="UTF-8"?>
<svg id="Layer_2" data-name="Layer 2" xmlns="http://www.w3.org/2000/svg" viewBox="0 0 55.05 54">
  <defs>
    <style>
      .cls-1 {
        fill: #fff;
      }
    </style>
  </defs>
  <g id="Layer_1-2" data-name="Layer 1">
    <g>
      <path class="cls-1" d="M55.05,53.02c-.34.74-.92.98-1.73.98-17.36-.02-34.73-.01-52.09-.01-.83,0-1.22-.24-1.23-.78-.01-.56.39-.83,1.24-.83.5,0,1,0,1.5-.01.03,0,.06-.03.12-.05v-31.44c-.27-.06-.54-.09-.79-.17-2-.59-2.74-3.04-1.4-4.64.08-.1.17-.19.26-.27C5.26,11.47,9.58,7.14,13.9,2.83c1.25-1.25,2.98-1.29,4.22-.07,1.52,1.49,3.02,3.01,4.53,4.52.32.32.48.68.21,1.11-.22.35-.57.45-.94.31-.21-.08-.38-.26-.55-.42-1.41-1.4-2.81-2.81-4.22-4.22-.77-.77-1.44-.76-2.22.01-4.25,4.24-8.49,8.49-12.74,12.73-.39.39-.67.8-.55,1.38.19.92,1.26,1.33,2.02.77.17-.13.32-.29.47-.44,3.69-3.69,7.38-7.37,11.06-11.06.69-.69,1.01-.69,1.7,0,3.7,3.7,7.4,7.4,11.1,11.1.13.13.25.26.39.37.53.42,1.25.38,1.71-.08.47-.47.52-1.24.05-1.75-.46-.5-.95-.97-1.44-1.45-1.51-1.51-3.02-3.01-4.53-4.52-.31-.31-.44-.66-.2-1.06.2-.34.51-.47.87-.36.21.06.4.22.56.38,1.9,1.88,3.78,3.77,5.68,5.65.88.87,1.22,1.9.84,3.09-.37,1.17-1.21,1.82-2.43,2-.09.01-.17.04-.28.07v9.13c.45,0,.87.02,1.3,0,4.2-.22,7.27,1.68,9.29,5.23,1.18,2.07,2.05,4.32,3.07,6.49.61,1.31,1.21,2.63,1.87,3.92.27.53.68,1.01,1.08,1.47.63.74,1.46,1.06,2.43,1.06,1.67,0,3.33.03,5-.02.83-.02,1.42.25,1.77.99v3.87ZM4.51,34.18h5.9c0-.23,0-.42,0-.62,0-1.16-.02-2.33.01-3.49.08-2.78,2.2-5.14,4.87-5.44,2.96-.33,5.54,1.42,6.23,4.25.13.55.17,1.13.18,1.7.03,1.19,0,2.39,0,3.6h5.89v-.67c0-4.03-.02-8.06.02-12.1,0-.71-.18-1.19-.7-1.71-3.5-3.44-6.96-6.93-10.43-10.4-.14-.14-.28-.26-.43-.41-.17.16-.31.29-.45.43-3.5,3.5-6.99,7-10.51,10.48-.44.43-.59.84-.59,1.43.02,4.09.01,8.17.01,12.26v.68ZM29.21,35.79v.72c0,2.13,0,4.26,0,6.4,0,.23.04.53-.09.67-.2.23-.5.45-.79.5-.37.06-.63-.22-.71-.59-.04-.19-.03-.39-.03-.59,0-2.13,0-4.26,0-6.4,0-.21,0-.42,0-.65h-1.92v16.47h1.92c0-.24,0-.43,0-.63,0-1.52,0-3.05,0-4.57,0-.56.31-.89.78-.9.47,0,.8.32.82.87.02.84,0,1.68,0,2.53,0,.89,0,1.78,0,2.7h13.76c-2.65-2.04-3.96-4.85-5.18-7.73-.49-1.17-.91-2.37-1.47-3.52-.6-1.24-1.26-2.45-1.99-3.61-.48-.77-1.18-1.41-2.12-1.54-.97-.13-1.95-.11-3.01-.16ZM53.41,49.78c-1.72,0-3.4-.01-5.08,0-1.53.02-2.83-.52-3.77-1.71-.7-.89-1.36-1.86-1.86-2.87-.8-1.62-1.45-3.31-2.15-4.97-.78-1.83-1.6-3.63-2.79-5.25-2.14-2.91-5.08-3.7-8.51-3.28v2.52c.71,0,1.39,0,2.07,0,1.45,0,2.73.47,3.68,1.58.67.78,1.32,1.63,1.77,2.54.87,1.74,1.6,3.55,2.37,5.34.8,1.86,1.59,3.72,2.81,5.36,1.65,2.21,3.8,3.42,6.62,3.33,1.38-.04,2.76,0,4.14,0h.7v-2.59ZM11.97,52.35v-16.48h-3.87v16.48h3.87ZM20.12,52.33h3.85v-16.46h-3.85v16.46ZM12.07,34.17h8.01c0-1.43.06-2.81-.01-4.18-.11-2.1-1.75-3.68-3.82-3.79-2.01-.11-3.9,1.28-4.14,3.29-.18,1.53-.04,3.1-.04,4.68ZM4.55,35.86v16.47h1.87v-16.47h-1.87ZM13.65,35.86v2.98h4.79v-2.98h-4.79ZM13.64,43.5h4.8v-2.96h-4.8v2.96ZM13.64,48.15h4.81v-2.96h-4.81v2.96ZM18.46,49.84h-4.81v2.5h4.81v-2.5Z"/>
      <path class="cls-1" d="M55.05,10.65c-.06.24-.13.48-.19.72-.72,2.83-3.15,4.76-6.06,4.77-3.9,0-7.81,0-11.71,0-2.14,0-3.9-1.35-4.4-3.33-.51-2.03.37-4,2.26-5.03.27-.15.33-.3.33-.58.03-3.25,2.06-5.98,5.14-6.9,3.02-.9,6.23.29,8.04,2.97.12.18.4.36.62.37,2.96.17,5.36,2.28,5.88,5.21.02.1.06.2.1.3v1.51ZM42.96,14.53c1.93,0,3.87.01,5.8,0,2.65-.02,4.71-2.11,4.67-4.73-.04-2.57-2.18-4.61-4.8-4.52-.67.02-1.04-.19-1.35-.78-1.25-2.33-4.02-3.42-6.53-2.62-2.55.81-4.16,3.34-3.83,6.01.08.63-.1.9-.72,1.12-1.46.49-2.23,1.72-2.01,3.19.21,1.37,1.41,2.33,2.91,2.34,1.95,0,3.9,0,5.86,0Z"/>
      <path class="cls-1" d="M16.02,22.17c-1.98-.01-3.56-1.62-3.55-3.62.01-1.95,1.63-3.55,3.58-3.54,1.98,0,3.6,1.63,3.58,3.6-.01,1.99-1.63,3.57-3.62,3.56ZM16.04,20.55c1.1,0,1.99-.88,1.99-1.97,0-1.09-.9-1.98-1.99-1.97-1.07,0-1.94.88-1.95,1.95-.01,1.1.86,1.98,1.96,1.99Z"/>
    </g>
  </g>
</svg>