<?xml version="1.0" encoding="UTF-8"?>
<svg id="Layer_2" data-name="Layer 2" xmlns="http://www.w3.org/2000/svg" viewBox="0 0 41.66 54">
  <defs>
    <style>
      .cls-1 {
        fill: #fff;
      }
    </style>
  </defs>
  <g id="Layer_1-2" data-name="Layer 1">
    <g>
      <path class="cls-1" d="M2.05,54c-.5-.34-1.09-.6-1.46-1.04-.32-.39-.5-.98-.53-1.49-.07-1.26-.03-2.53-.02-3.8,0-.59.28-.93.76-.95.5-.01.82.34.82.95,0,1.2,0,2.39,0,3.59,0,.8.36,1.16,1.16,1.16.97,0,1.93,0,2.97,0,0-.21,0-.4,0-.58,0-1.81,0-3.62,0-5.43,0-.14,0-.28,0-.42.06-.49.39-.78.84-.75.45.03.72.33.73.86,0,1.74,0,3.48,0,5.22,0,.35,0,.7,0,1.08h9.95c.12-.8.24-1.61.35-2.42.37-2.64.72-5.29,1.11-7.93.06-.42-.02-.7-.3-.98-.24-.23-.44-.5-.65-.74-1.54.38-1.95.23-2.87-1.05-.98-1.37-1.97-2.74-2.94-4.12-.24-.35-.45-.47-.9-.37-1.23.27-2.49.46-3.73.7-.31.06-.6.17-.93.27.17.32.35.58.45.87.29.85.21,1.66-.31,2.41-.21.3-.45.58-.68.87-1.15,1.43-2.27,1.66-3.97.76-.09.61-.21,1.19-.26,1.78-.04.47,0,.95-.03,1.42-.03.46-.36.77-.78.77-.42,0-.75-.31-.79-.76-.42-4.4,2.28-8.55,6.47-9.79,1.36-.4,2.79-.56,4.18-.83,1.05-.2,2.11-.39,3.16-.58.2-.04.44-.08.62-.01.47.17.69-.09.74-.46.08-.55.09-1.12.1-1.67,0-.11-.12-.25-.23-.32-2.39-1.6-3.76-3.83-4.19-6.66-.02-.12-.18-.28-.31-.32-1.34-.34-2.03-1.18-2.05-2.56,0-.56,0-1.13,0-1.69,0-.66.23-1.23.67-1.73.11-.13.21-.33.21-.5.02-1.2.02-2.39,0-3.59,0-.17-.16-.39-.31-.51-.57-.44-1.21-.79-1.73-1.28-1.15-1.09-1.38-2.4-.75-3.86.64-1.49,1.75-2.62,2.99-3.62,6.62-5.31,16.37-5.16,22.83.35.93.79,1.75,1.68,2.33,2.77,1.01,1.87.68,3.48-.98,4.81-.27.22-.55.46-.87.59-.6.24-.78.62-.72,1.25.06.68.02,1.37.01,2.06,0,.71.13,1.32.49,2,.72,1.36.63,2.89.04,4.32-.27.66-.9,1.03-1.61,1.16-.27.05-.37.13-.41.42-.42,2.77-1.76,4.96-4.08,6.55-.16.11-.31.39-.3.59.02.55.09,1.11.19,1.65.02.12.22.28.36.29.6.06,1.22.03,1.82.13,1.96.34,3.91.7,5.85,1.08,3.47.69,6.46,3.92,6.95,7.5.08.57.11,1.16.11,1.73.01,2.53-.05,5.07.03,7.6.05,1.6-.49,2.72-2.03,3.27H2.05ZM13.86,16.24c0,.61,0,1.18,0,1.76,0,.5-.19.89-.66,1.1-.45.2-.83.06-1.22-.22-.32-.23-.69-.41-1.07-.53-.51-.16-.72,0-.75.55-.03.51-.02,1.02-.01,1.53,0,.97.24,1.21,1.21,1.23.82.01,1.03.19,1.09,1.01.19,2.68,1.38,4.78,3.64,6.27,4.19,2.78,10.03,1.36,12.29-2.99.56-1.08.81-2.23.89-3.44.04-.59.29-.81.87-.85.23-.01.5.06.67-.05.27-.16.65-.42.68-.67.09-.71.06-1.44.02-2.15-.02-.4-.27-.62-.69-.45-.37.15-.76.29-1.08.52-.4.29-.79.45-1.27.24-.49-.22-.67-.64-.66-1.16,0-.56,0-1.11,0-1.69-4.67,1.26-9.29,1.27-13.95,0ZM35.27,35.73c-.37-.1-.68-.21-1.01-.28-1.21-.23-2.42-.41-3.62-.69-.49-.11-.72.02-.99.41-1.04,1.5-2.11,2.98-3.18,4.46-.59.81-1.31,1.03-2.27.77-.15-.04-.38.04-.51.14-.2.16-.34.4-.53.59-.25.24-.3.49-.25.85.35,2.4.67,4.8,1,7.2.15,1.07.31,2.15.46,3.22h9.95c0-.22,0-.4,0-.59,0-1.92,0-3.83,0-5.75,0-.51.31-.82.76-.83.45,0,.77.29.81.79.01.14,0,.28,0,.42,0,1.79,0,3.59,0,5.38v.59c1.12,0,2.17.02,3.22,0,.57-.02.91-.44.91-1.08,0-2.95.01-5.91-.02-8.86,0-.6-.16-1.2-.26-1.83-1.71.9-2.81.67-3.98-.76-.12-.15-.24-.3-.36-.45-1.01-1.25-1.07-2.24-.16-3.69ZM30.59,11.56c.03-.11.05-.15.05-.18,0-.51,0-1.02,0-1.53,0-.78-.18-1.06-.96-1.2-2.07-.39-4.14-.8-6.22-1.09-3.99-.54-7.88.05-11.72,1.13-.27.08-.63.4-.66.65-.09.72-.03,1.45-.03,2.22.26,0,.47,0,.68,0,4.15,0,8.3,0,12.45,0,.18,0,.35,0,.53,0,.45.03.71.28.76.72.05.42-.25.76-.71.83-.17.03-.35.02-.53.02-4.04,0-8.09,0-12.13,0-.18,0-.37,0-.55,0-.01.04-.03.08-.04.13.25.18.47.41.75.53.97.41,1.92.88,2.93,1.14,3.05.8,6.16.83,9.26.42,1.69-.23,3.35-.63,4.85-1.49.3-.17.57-.4.85-.61-.55-.12-1.05-.1-1.54-.12-.56-.02-.92-.36-.9-.82.02-.45.36-.74.9-.75.65,0,1.29,0,1.96,0ZM32.23,10.94c1.63-.87,2-2.03,1.01-3.44-.59-.84-1.31-1.62-2.09-2.27C25.79.77,17.88.36,11.95,4.18c-1.46.94-2.8,2.02-3.67,3.56-.76,1.33-.3,2.55,1.17,3.16,0-.49-.01-.96,0-1.43.03-1.06.71-2.05,1.73-2.27,2.21-.48,4.42-1.01,6.66-1.27,4.26-.5,8.44.24,12.56,1.27,1.11.28,1.8,1.22,1.82,2.37,0,.44,0,.88,0,1.37ZM20.84,37.12c1.54-1.15,3.06-2.28,4.47-3.34-.25-.89-.48-1.7-.71-2.51-3.38.95-3.61.95-7.54,0-.23.81-.46,1.63-.7,2.5,1.42,1.06,2.92,2.18,4.47,3.34ZM20.34,42.07c-.48,3.47-.96,6.88-1.43,10.3h3.86c-.48-3.46-.96-6.88-1.44-10.3h-1ZM19.24,37.92c-.2-.15-.34-.27-.5-.38-1.35-1.01-2.72-2-4.04-3.04-.43-.34-.81-.28-1.31-.11,1.07,1.49,2.1,2.95,3.16,4.39.07.09.33.13.46.08.73-.29,1.45-.61,2.24-.94ZM22.42,37.91c.74.32,1.43.59,2.09.9.36.17.57.07.78-.24.66-.95,1.34-1.89,2.02-2.83.31-.44.62-.88.96-1.35-.5-.18-.88-.24-1.31.11-.87.71-1.79,1.35-2.69,2.03-.6.45-1.2.9-1.85,1.39ZM2.53,38.97c.79.81,1.37.79,1.98.07.22-.27.45-.54.66-.82.46-.62.38-1.14-.38-1.7-.74.8-1.49,1.62-2.25,2.45ZM39.05,39.07c-.58-1.02-1.34-1.85-2.28-2.5-.66.57-.72,1.05-.24,1.67.2.27.41.52.63.78.61.73,1.17.75,1.9.04ZM19.4,39.64c.37,1.03,1.25.89,2.01.78.35-.05.64-.47.95-.71-1.06-.82-2.02-.81-2.97-.07ZM12.24,17.1c.12-1.49-.06-1.8-1.2-2.06v1.68c.4.13.77.25,1.2.38ZM30.6,16.72v-1.74c-1.3.63-1.45.92-1.12,2.09.38-.12.75-.24,1.12-.36Z"/>
      <path class="cls-1" d="M12.1,50c-.67,0-1.33,0-2,0-.81-.01-1.32-.48-1.36-1.3-.03-.74-.03-1.48,0-2.21.04-.78.55-1.26,1.33-1.27,1.37-.01,2.74-.02,4.11,0,.79.01,1.27.5,1.3,1.29.02.74.02,1.48,0,2.21-.02.78-.53,1.25-1.32,1.27-.04,0-.07,0-.11,0-.65,0-1.3,0-1.95,0ZM10.34,46.84v1.54h3.52v-1.58c-1.07,0-2.1,0-3.14,0-.12,0-.24.02-.39.04Z"/>
      <path class="cls-1" d="M29.56,50c-.68,0-1.37.01-2.05,0-.78-.02-1.28-.5-1.31-1.28-.02-.74-.02-1.48,0-2.21.02-.78.52-1.27,1.31-1.28,1.37-.02,2.74-.02,4.11,0,.78,0,1.28.49,1.32,1.28.03.74.03,1.48,0,2.21-.04.81-.55,1.27-1.37,1.29-.04,0-.07,0-.11,0-.63,0-1.26,0-1.9,0ZM31.33,46.84h-3.52v1.55h3.52v-1.55Z"/>
    </g>
  </g>
</svg>