<?xml version="1.0" encoding="UTF-8"?>
<svg id="Layer_2" data-name="Layer 2" xmlns="http://www.w3.org/2000/svg" viewBox="0 0 54.01 54">
  <defs>
    <style>
      .cls-1 {
        fill: #fff;
      }
    </style>
  </defs>
  <g id="Layer_1-2" data-name="Layer 1">
    <path class="cls-1" d="M1.14,54c-.41,0-.74-.33-.74-.75v-1.16c0-2.74,2.23-4.97,4.97-4.97h10.73v-8.37h-7.2c-.41,0-.74-.33-.74-.74v-3.08c0-2.67,2.17-4.84,4.84-4.84h3.11V13.13l-2.15,2.15c-.14.14-.33.22-.52.22h-3.73v5.21c0,.41-.33.75-.75.75h-4.61c-.41,0-.74-.33-.74-.75v-5.21h-1.01c-1.43,0-2.59-1.16-2.59-2.59,0-.69.27-1.34.76-1.83.49-.49,1.14-.75,1.82-.75h1.01v-5.44c0-.41.33-.74.74-.74h4.61c.41,0,.75.33.75.74v5.44h1.83l2.79-2.74c.14-.14.33-.22.53-.22h1.24v-3.74c0-1.99,1.62-3.62,3.62-3.62.97,0,1.88.38,2.57,1.06.68.7,1.06,1.61,1.06,2.56v3.74h7.34v-3.74c0-1.99,1.63-3.62,3.64-3.62.98,0,1.89.38,2.57,1.07.68.68,1.05,1.58,1.05,2.55v3.74h1.23c.2,0,.39.08.53.22l2.7,2.7,1.93.04v-5.44c0-.41.33-.74.74-.74h4.6c.41,0,.74.33.74.74v5.44h1.01c1.43,0,2.59,1.16,2.59,2.58,0,.69-.27,1.34-.76,1.82-.48.49-1.13.76-1.83.76h-1.01v5.21c0,.41-.33.74-.74.74h-4.6c-.41,0-.74-.33-.74-.74v-5.21h-3.73c-.2,0-.39-.08-.52-.22l-2.14-2.15v16.98h3.1c2.67,0,4.84,2.17,4.84,4.84v3.08c0,.41-.33.74-.74.74h-7.2v8.37h10.72c2.74,0,4.97,2.23,4.97,4.97v1.16c0,.41-.33.75-.74.75H1.14ZM5.36,48.62c-1.92,0-3.48,1.56-3.48,3.48v.41h50.26v-.41c0-1.92-1.56-3.48-3.48-3.48H5.36ZM32.16,47.13h4.28v-8.37h-4.28v8.37ZM23.33,47.13h7.34v-8.37h-7.34v8.37ZM17.57,47.13h4.27v-8.37h-4.27v8.37ZM44.38,37.27v-2.33c0-1.85-1.5-3.35-3.36-3.35H12.98c-1.85,0-3.35,1.5-3.35,3.35v2.33h27.56s0,0,0,0h7.2ZM32.16,29.97h.26l-.13.13h4.15V12.53h-4.28v17.44ZM23.33,30.1h7.34V12.53h-7.34v17.56ZM17.57,30.1h4.27V12.53h-4.27v17.56ZM45.81,19.96h3.12V5.62h-3.12v14.33ZM5.08,19.96h3.12V5.62h-3.12v14.33ZM50.41,14h1.01c.3,0,.57-.11.77-.32.22-.21.33-.48.33-.78,0-.61-.49-1.1-1.1-1.1h-1.01v2.2ZM37.65,11.05c.19,0,.39.08.52.22l2.69,2.7,3.44.04v-2.2h-2.2c-.2,0-.38-.08-.53-.22l-2.7-2.7-1.7-.04H15.21l-2.8,2.74c-.14.14-.33.22-.52.22h-2.2v2.2h3.36l2.78-2.74c.14-.14.33-.22.53-.22h21.29ZM2.59,11.8c-.3,0-.57.11-.78.32-.21.21-.32.49-.32.78,0,.61.49,1.1,1.1,1.1h1.01v-2.2h-1.01ZM34.31,1.49c-1.19,0-2.15.96-2.15,2.13v3.74h4.28v-3.74c0-.58-.21-1.1-.62-1.51-.39-.4-.93-.62-1.51-.62M19.71,1.49c-1.18,0-2.13.96-2.13,2.13v3.74h4.27v-3.74c0-.56-.22-1.1-.63-1.52-.4-.4-.94-.61-1.51-.61"/>
  </g>
</svg>