<?xml version="1.0" encoding="UTF-8"?>
<svg id="Layer_2" data-name="Layer 2" xmlns="http://www.w3.org/2000/svg" viewBox="0 0 54 54">
  <defs>
    <style>
      .cls-1 {
        fill: #fff;
      }
    </style>
  </defs>
  <g id="Layer_1-2" data-name="Layer 1">
    <g>
      <path class="cls-1" d="M34.18,43.29v-12.63c-3.31,2.34-6.59,2.34-9.88-.03-3.24,2.36-6.53,2.39-9.87.03v10.74c.81,0,1.61,0,2.41,0,.85,0,1.15.31,1.15,1.15,0,1.99,0,3.97,0,6.05.31,0,.6-.01.89,0,.54.03.9.4.9.89,0,.49-.36.87-.89.9-.28.02-.56,0-.91,0,0,.91.01,1.79,0,2.66,0,.52-.34.88-.8.93-.44.05-.87-.24-.97-.69-.04-.18-.03-.37-.03-.56,0-.76,0-1.53,0-2.32h-1.8c0,.85,0,1.71,0,2.56,0,.57-.31.94-.79,1-.54.07-.99-.34-1-.95-.02-.86,0-1.72,0-2.61H3.6c0,.63,0,1.28,0,1.92,0,.21,0,.41,0,.62-.02.62-.36,1.01-.89,1.02-.54,0-.9-.4-.91-1.05,0-.82,0-1.64,0-2.5-.72-.12-1.78.21-1.77-.95,0-1.12,1.01-.84,1.77-.91,0-.49,0-.96,0-1.42,0-1.56,0-3.11,0-4.67,0-.77.32-1.09,1.1-1.09,3,0,6,0,9,0,.21,0,.41,0,.66,0v-10.75c-2.33,1.74-4.87,2.25-7.61,1.25-1.81-.66-3.16-1.9-4.08-3.6-1.77-3.29-.94-8.24,3.55-10.54-.86-1.74-1.08-3.56-.5-5.44.58-1.88,1.75-3.28,3.35-4.2,0-.95-.11-1.86.02-2.72C7.85,1.76,11.09-.52,14.68.12c3.41.6,5.65,3.95,4.98,7.48-.05.28-.08.45.22.64,3.28,2.08,4.38,5.76,2.8,9.31-.03.07-.05.14-.09.22.57.37,1.13.73,1.7,1.1.55-.35,1.11-.71,1.65-1.06-.22-.77-.52-1.52-.63-2.31-.41-3.01.68-5.4,3.18-7.12.43-.29.51-.53.43-1.02-.58-3.37,1.59-6.56,4.89-7.24,3.36-.69,6.61,1.36,7.41,4.71.13.52.17,1.07.17,1.61,0,.52-.11,1.04-.17,1.59,1.69.96,2.88,2.37,3.47,4.27.58,1.88.36,3.7-.5,5.44,4.52,2.28,5.43,7.45,3.3,10.99-1.84,3.05-6.82,5.37-11.49,1.91v.52c0,3.86,0,7.72,0,11.59,0,.2.1.4.16.6.15-.12.35-.22.45-.38.99-1.43,2.77-1.96,4.38-1.31.2.08.48.13.67.06,1.91-.75,3.57-.22,4.67,1.51.03.05.06.09.09.13,2.96-.47,4.56.68,4.91,3.53,1.31.43,2.22,1.28,2.55,2.66.54,2.26-1.12,4.41-3.45,4.43-2.23.03-4.46,0-6.69,0-3.77,0-7.54.01-11.31,0-1.5,0-2.64-.7-3.28-2.06-.64-1.34-.48-2.66.47-3.79.39-.47,1.01-.75,1.51-1.12.13-.1.34-.22.35-.34.15-1.73,1.08-2.82,2.69-3.39ZM14.4,16.74c.71-.72,1.31-1.33,1.91-1.93.5-.5,1.03-.55,1.43-.14.39.4.34.92-.17,1.43-.94.94-1.89,1.87-2.81,2.83-.19.2-.34.54-.35.81-.03,2.55-.02,5.1,0,7.65,0,.29.11.63.28.86,1.48,2.01,4.09,2.82,6.47,2.04,2.38-.78,4.01-2.99,4.03-5.46.03-2.53-1.54-4.77-3.92-5.6-1.12-.39-1.26-.83-.6-1.83,1.84-2.76.78-6.52-2.22-7.9-.99-.46-1.08-.67-.73-1.69.66-1.88.03-3.95-1.55-5.12-1.62-1.2-3.79-1.19-5.39.02-1.57,1.18-2.19,3.25-1.52,5.13.34.97.24,1.2-.71,1.65-3.02,1.41-4.09,5.14-2.26,7.89.69,1.03.55,1.44-.61,1.86-2.23.8-3.8,2.91-3.88,5.23-.09,2.44,1.27,4.65,3.47,5.62,2.21.98,4.77.5,6.5-1.2.55-.55.98-1.12.83-1.97-.06-.31.03-.64-.02-.95-.04-.24-.14-.49-.28-.68-.26-.32-.57-.59-.87-.88-.64-.64-1.27-1.27-1.91-1.91-.61-.61-.69-1.12-.25-1.55.43-.42.93-.33,1.55.29.45.45.9.9,1.35,1.35.11.11.23.21.42.37v-.71c0-2.83,0-5.66,0-8.49,0-.75.33-1.17.91-1.17.57,0,.89.42.89,1.19,0,.93,0,1.86,0,2.95ZM36,16.56s.08.05.12.08c.61-.62,1.23-1.25,1.84-1.87.3-.3.63-.47,1.06-.3.66.26.77.99.22,1.56-.97.99-1.97,1.95-2.93,2.96-.17.18-.29.48-.3.72-.02,2.59-.02,5.17,0,7.76,0,.24.09.52.23.72,1.1,1.5,2.59,2.31,4.44,2.4,2.92.14,5.49-1.9,6.01-4.7.54-2.94-1.05-5.69-3.87-6.67-1.04-.36-1.19-.84-.57-1.77,1.9-2.82.81-6.6-2.3-7.99-.83-.37-.96-.7-.66-1.54.71-1.94.1-4.03-1.52-5.22-1.61-1.18-3.74-1.18-5.35,0-1.62,1.19-2.24,3.28-1.53,5.22.31.86.18,1.18-.64,1.55-3.15,1.42-4.22,5.18-2.28,8.03.59.87.41,1.35-.58,1.74-.65.26-1.25.61-1.89.93,1.99,3.11,1.98,6.1.04,9.13.06.04.13.07.19.12,2.53,2,6.53,1.38,8.3-1.3.11-.16.14-.38.17-.57.23-1.37-.18-2.44-1.31-3.31-.74-.57-1.35-1.3-2-1.97-.4-.42-.38-.95,0-1.3.36-.34.85-.33,1.27.03.21.19.4.39.6.59.45.45.9.9,1.45,1.45v-.77c0-2.85,0-5.7,0-8.55,0-.7.36-1.11.92-1.1.54.02.87.42.87,1.09,0,.96,0,1.91,0,2.87ZM41.4,52.19c3,0,6,0,9,0,1.05,0,1.82-.81,1.82-1.81,0-.98-.77-1.74-1.8-1.78-.85-.03-1.18-.45-1-1.27.2-.9-.04-1.58-.7-2.02-.66-.44-1.42-.4-2.14.12-.76.54-1.39.29-1.58-.64-.31-1.47-1.68-2.03-2.91-1.15-.46.33-.87.34-1.33,0-1.23-.87-2.61-.32-2.91,1.14-.2.96-.82,1.2-1.62.62-.47-.34-.97-.48-1.54-.34-.98.25-1.53,1.17-1.31,2.16.22.98-.04,1.33-1.07,1.39-.11,0-.22.02-.33.05-.9.23-1.47,1.08-1.35,2,.11.89.88,1.54,1.85,1.54,2.98,0,5.96,0,8.94,0ZM16.17,43.23H3.64v1.73h12.53v-1.73ZM3.64,46.82v1.73h8.93v-1.73H3.64ZM16.18,46.82h-1.74v1.73h1.74v-1.73Z"/>
      <path class="cls-1" d="M27,50.39c0,.84,0,1.69,0,2.53,0,.73-.33,1.06-1.07,1.07-1.09,0-2.17,0-3.26,0-.73,0-1.06-.33-1.07-1.07,0-1.69,0-3.37,0-5.06,0-.74.33-1.06,1.07-1.07,1.09,0,2.17,0,3.26,0,.73,0,1.06.33,1.07,1.07,0,.84,0,1.69,0,2.53ZM23.42,52.16h1.74v-3.53h-1.74v3.53Z"/>
      <path class="cls-1" d="M41.42,45.9c.49.01.89.43.88.91-.01.49-.43.89-.91.88-.49-.01-.89-.43-.88-.91.01-.49.43-.89.91-.88Z"/>
      <path class="cls-1" d="M46.78,47.7c.49-.01.91.38.92.87.01.49-.39.91-.87.92-.49.01-.9-.38-.92-.87-.01-.49.38-.9.87-.92Z"/>
      <path class="cls-1" d="M35.96,50.39c-.49-.02-.88-.45-.85-.94.02-.49.45-.88.94-.85.49.02.88.45.85.94-.02.49-.46.88-.94.85Z"/>
    </g>
  </g>
</svg>