<?xml version="1.0" encoding="UTF-8"?>
<svg id="Layer_2" data-name="Layer 2" xmlns="http://www.w3.org/2000/svg" viewBox="0 0 53.93 54">
  <defs>
    <style>
      .cls-1 {
        fill: #fff;
      }
    </style>
  </defs>
  <g id="Layer_1-2" data-name="Layer 1">
    <g>
      <path class="cls-1" d="M48.7,39.77l-35.54-.06c-.92-.61-.55-1.11.18-1.62,1.64-1.12,3.77-1.99,5.48-3.05l13.34-.04c1.17-.2,2.21-.76,2.85-1.79.28-.46.37-.96.66-1.35l8.62-.02c2.21-.26,4.02-1.66,4.76-3.77l4.88-19.13c0-.34-.22-.62-.52-.74l-39.02-.04c-.68-3.69-2.9-6.92-6.7-7.85C6.32,0,3.47-.09,2.07.08,1.02.21.3,1,0,1.97v.95c.96,3.13,4.53,1.31,6.88,2.13,1.16.41,2.04,1.37,2.42,2.53l6.08,23.82-.17.25c-1.54.95-3.45,1.74-4.92,2.77-3.94,2.75-2.77,8.77,1.82,9.93,12.1.36,24.27.05,36.4.16,2.88-.29,3.06-4.22.2-4.73ZM35.49,30.29h-4.11l-.32-5.79h4.74l-.32,5.79ZM35.92,22.92h-4.79l-.16-.26-.21-5.53h5.48l-.32,5.79ZM45.5,29.92c-.14.06-1.03.37-1.11.37h-1.63l1-5.79h4.58c-.57,2.03-.65,4.42-2.84,5.42ZM45.92,9.76h6.21l-1.47,5.79h-5.58l.84-5.79ZM50.24,17.13l-1.47,5.79h-4.84l.84-5.79h5.48ZM38.13,9.76h6.21l-.84,5.79h-5.69l.32-5.79ZM37.71,17.39l.16-.26h5.32l-.84,5.79h-4.85l.21-5.53ZM37.39,24.5h4.63l-.84,5.79h-4.11l.32-5.79ZM36.55,9.76l-.32,5.79h-5.58l-.32-5.79h6.21ZM28.75,9.76l.32,5.79h-3.32s-.44.29-.48.36c-.27.44.05,1.22.48,1.22h3.42l.32,5.79h-4.95l-2-13.16h6.21ZM29.81,30.29h-4.11l-.84-5.79h4.63l.32,5.79ZM24.12,30.29h-4.11l-1.47-5.79h4.74l.84,5.79ZM22.96,22.92h-4.85l-1.47-5.79h5.48l.84,5.79ZM20.96,9.76l.84,5.79h-5.58l-1.47-5.79h6.21ZM9.89,3.27l-1.08,1c-.77-.48-1.75-.93-2.66-1.03-1.16-.12-2.94.19-3.97-.04-.79-.18-.79-1.36,0-1.53.63-.14,3.02-.08,3.77-.03.42.03,1.03.14,1.44.25.41.11,2.57.98,2.5,1.38ZM48.67,42.87l-35.45.05c-2.56-.2-4.31-2.64-3.56-5.14.77-2.57,5.07-3.72,7.08-5.24l.4-.64L10.92,7.52c-.2-.73-.48-1.42-.9-2.05l1.08-1.08c.31.07,1.19,2.01,1.27,2.42l6.42,24.75c.06.07.38.31.43.31h14.69c-.23.9-1.16,1.49-2.06,1.58l-13.54.05c-1.82,1.26-4.63,2.24-6.31,3.59-1.79,1.45-.92,4.07,1.3,4.26h35.08c.9.08,1.09,1.15.27,1.53Z"/>
      <path class="cls-1" d="M18.17,46.07c-4.93,0-5.23,7.28-.58,7.9.26.04.9.04,1.16,0,4.65-.62,4.36-7.9-.58-7.9ZM18.48,52.39c-3.09.38-3.66-4.3-.7-4.7,3.26-.44,3.72,4.33.7,4.7Z"/>
      <path class="cls-1" d="M45.24,46.07c-4.93,0-5.23,7.28-.58,7.9.26.04.9.04,1.16,0,4.65-.62,4.36-7.9-.58-7.9ZM45.54,52.39c-3.09.38-3.66-4.3-.7-4.7,3.26-.44,3.72,4.33.7,4.7Z"/>
      <path class="cls-1" d="M17.98,49.25c-.96.2-.7,1.76.37,1.54.96-.2.7-1.76-.37-1.54Z"/>
      <path class="cls-1" d="M45.05,49.25c-.96.2-.7,1.76.37,1.54.96-.2.7-1.76-.37-1.54Z"/>
    </g>
  </g>
</svg>