<?xml version="1.0" encoding="UTF-8"?>
<svg id="Layer_2" data-name="Layer 2" xmlns="http://www.w3.org/2000/svg" viewBox="0 0 61.55 54">
  <defs>
    <style>
      .cls-1 {
        fill: #fff;
      }
    </style>
  </defs>
  <g id="Layer_1-2" data-name="Layer 1">
    <g>
      <path class="cls-1" d="M61.55,53.38c-.26.46-.65.63-1.19.62-19.72-.01-39.43,0-59.15,0-.49,0-.93-.05-1.14-.57-.26-.62.19-1.22.95-1.23,1.22-.02,2.44,0,3.76,0-1.18-1.91-1.29-3.84-.39-5.75-.67-.35-1.36-.63-1.96-1.03-1.03-.7-1.06-1.81-.11-2.62,2.68-2.3,5.35-4.59,8.04-6.88.75-.64,1.27-1.41,1.59-2.35,1.18-3.55,2.37-7.09,3.56-10.64.9-2.68,2.69-4.44,5.4-5.27,2.08-.64,4.15-1.31,6.35-2.14-.15-.09-.33-.15-.45-.27-1.33-1.26-2.03-2.82-2.03-4.65,0-1.74-.08-3.5.12-5.22C25.29,2.13,28.28-.18,31.59.01c3.18.18,5.81,2.82,5.93,6.02.06,1.62.05,3.25,0,4.87-.05,1.82-.84,3.31-2.19,4.52-.13.12-.26.23-.46.4,1.62.51,3.17,1,4.73,1.49.69.22,1.39.41,2.04.7,2.2.96,3.63,2.63,4.39,4.89,1.19,3.57,2.4,7.13,3.58,10.7.31.92.83,1.67,1.56,2.3,2.66,2.26,5.3,4.53,7.95,6.79,1.09.93,1.04,2.03-.16,2.81-.53.34-1.13.58-1.72.87,1.15,1.87,1.19,3.8-.06,5.81,1.08,0,2.07.02,3.06,0,.55-.02.97.14,1.28.59v.6ZM20.28,29.13c.1-.23.19-.43.27-.63.32-.78.62-1.56.95-2.33.19-.44.55-.64,1.02-.53.43.1.68.4.69.86,0,.18,0,.36,0,.54,0,4.01,0,8.01,0,12.02v.69h15.12v-.69c0-2.82,0-5.65,0-8.47,0-1.32,0-2.64,0-3.97,0-.51.2-.87.7-.98.53-.12.88.16,1.08.64.34.83.67,1.67,1.01,2.5.11.27.22.54.35.83,1.46-.64,2.85-1.24,4.27-1.86-.06-.23-.11-.42-.17-.61-.4-1.21-.81-2.43-1.22-3.64-.7-2.11-2.11-3.49-4.24-4.14-1.85-.57-3.7-1.15-5.55-1.75-1.96-.63-3.98-.92-5.98-.38-2.68.72-5.34,1.54-7.96,2.46-1.65.58-2.71,1.88-3.3,3.53-.36,1.02-.69,2.04-1.04,3.07-.08.24-.15.48-.22.74,1.43.72,2.81,1.4,4.22,2.11ZM33.68,52.19c-.51-1.34-1.52-1.89-2.74-2.05-2.2-.29-4.42-.49-6.62-.73-2.57-.27-5.14-.54-7.7-.82-.62-.07-.93-.45-.87-1,.05-.52.48-.84,1.08-.78,2.75.29,5.49.61,8.24.86,3,.27,5.99.88,9.03.53.64-.07,1.28-.09,1.92-.11.65-.02,1.06.32,1.09.86.02.53-.37.9-1.02.94-.5.03-.99.06-1.47.09.34.74.66,1.44,1.01,2.19.03,0,.12.02.22.02,6.13,0,12.26,0,18.39,0,.15,0,.34-.01.45-.09.65-.45,1.2-.99,1.47-1.77.65-1.85-.35-3.63-2.4-4.25-4.72-1.45-9.44-2.89-14.17-4.32-.32-.1-.67-.14-1-.14-5.21,0-10.42,0-15.62,0-.29,0-.6.04-.88.12-4.98,1.49-9.96,2.98-14.93,4.49-.3.09-.62.31-.8.56-.86,1.21-.99,2.52-.34,3.86.61,1.24,1.7,1.57,3,1.56,7.99-.02,15.98,0,23.98,0,.2,0,.4,0,.71,0ZM35.74,8.53h0c0-.8.03-1.6,0-2.4-.11-2.29-1.94-4.16-4.21-4.32-2.35-.16-4.54,1.43-4.81,3.76-.21,1.82-.21,3.68-.07,5.51.19,2.48,2.3,4.17,4.79,4.08,2.33-.09,4.21-1.99,4.31-4.4.03-.74,0-1.48,0-2.22ZM15.46,28.75c-.64,1.9-1.25,3.69-1.85,5.5-.39,1.17-1.05,2.15-1.99,2.95-2.5,2.13-4.99,4.27-7.49,6.4-.16.14-.32.28-.51.46,1.29.76,2.53.75,3.76.06,2.06-1.15,4.1-2.35,6.2-3.43,1.7-.87,3.16-1.9,3.63-3.88,0-.04.03-.07.05-.11.26-.46.72-.63,1.17-.44.44.2.62.64.47,1.15-.55,1.84-1.55,3.33-3.32,4.21-.07.04-.13.1-.2.15,1.87-.49,3.7-1.06,5.54-1.58.39-.11.5-.27.49-.66-.02-2.56,0-5.13,0-7.69,0-.11-.02-.21-.02-.32-.3.48-.49.97-.7,1.46-.26.61-.72.84-1.23.64-.49-.19-.67-.71-.44-1.31.19-.5.39-.98.59-1.49-1.4-.7-2.74-1.37-4.15-2.07ZM46.33,29.45c-1.42.62-2.8,1.22-4.2,1.84.81,2.02,1.64,3.95,2.35,5.93.5,1.39,1.39,2.32,2.67,3.01,2.35,1.25,4.66,2.58,6.98,3.88,1.25.7,2.5.73,3.85-.07-.18-.13-.31-.22-.43-.32-2.47-2.11-4.92-4.23-7.41-6.32-1.11-.93-1.87-2.06-2.3-3.44-.47-1.49-.99-2.95-1.5-4.49ZM46.31,41.91c-.16-.17-.19-.2-.22-.22-.1-.06-.2-.13-.31-.19-1.3-.73-2.24-1.75-2.78-3.17-.8-2.11-1.67-4.19-2.51-6.29-.08-.19-.17-.37-.26-.56-.03.01-.06.02-.09.03,0,2.38,0,4.76,0,7.13q0,1.36,1.32,1.77c1.56.48,3.12.95,4.85,1.48Z"/>
      <path class="cls-1" d="M43.92,49.45c-.92.05-1.83.11-2.75.16-.7.04-1.13-.26-1.17-.82-.04-.58.32-.93,1.02-.97,1.85-.11,3.71-.22,5.56-.33.04,0,.08,0,.12,0,.71-.01,1.12.29,1.15.85.03.56-.37.91-1.06.95-.96.05-1.91.11-2.87.16Z"/>
    </g>
  </g>
</svg>