<?xml version="1.0" encoding="UTF-8"?>
<svg id="Layer_2" data-name="Layer 2" xmlns="http://www.w3.org/2000/svg" viewBox="0 0 11.24 21.28">
  <defs>
    <style>
      .cls-1 {
        fill: #fff;
      }
    </style>
  </defs>
  <g id="Layer_1-2" data-name="Layer 1">
    <path class="cls-1" d="M11.23,9.39l-.27,2.16c-.05.36-.35.63-.71.63h-3.51v9.05c-.37.03-.74.05-1.12.05-.85,0-1.67-.08-2.47-.25v-8.85H.45c-.25,0-.45-.2-.45-.45v-2.71c0-.25.2-.45.45-.45h2.7v-4.06C3.15,2.02,5.16,0,7.64,0h3.15c.25,0,.45.2.45.45v2.71c0,.25-.2.45-.45.45h-2.25c-.99,0-1.8.81-1.8,1.81v3.16h3.77c.43,0,.77.38.72.81h0Z"/>
  </g>
</svg>