<?xml version="1.0" encoding="UTF-8"?>
<svg id="Layer_2" data-name="Layer 2" xmlns="http://www.w3.org/2000/svg" viewBox="0 0 141.32 119.68">
  <defs>
    <style>
      .cls-1 {
        fill: #84ae40;
      }
    </style>
  </defs>
  <g id="Layer_1-2" data-name="Layer 1">
    <path class="cls-1" d="M127.86,38.93c-.39-.67-3.16-5.15-8.16-6.42-.58-.15-1.16-.23-1.75-.28.25-.55.47-1.12.62-1.72,1.22-4.77-1.33-8.99-1.74-9.63L104.44.04l-23.98,2.1c-.77.03-5.96.4-9.32,4.17-.17.19-.32.4-.48.6-.16-.2-.31-.41-.48-.6-3.36-3.77-8.55-4.13-9.32-4.17L36.42,0l-11.93,20.88c-.41.64-2.95,4.87-1.74,9.63.15.59.37,1.16.62,1.72-.59.05-1.17.13-1.75.28-5,1.27-7.77,5.75-8.16,6.42L0,59.85l13.46,20.91c.39.67,3.16,5.15,8.16,6.42.58.15,1.16.23,1.75.28-.25.56-.47,1.12-.62,1.72-1.22,4.77,1.33,8.99,1.74,9.63l12.07,20.87,24.3-2.13c.77-.03,5.96-.4,9.32-4.17.17-.19.32-.4.48-.6.16.2.31.41.48.6,3.36,3.77,8.55,4.13,9.32,4.17l23.83,2.09,12.55-20.82c.41-.64,2.95-4.87,1.74-9.63-.15-.59-.37-1.16-.62-1.72.59-.05,1.17-.13,1.75-.28,5-1.27,7.77-5.75,8.16-6.42l13.46-20.92-13.46-20.91ZM74.46,9.31c2.24-2.54,6.16-2.7,6.19-2.7l21.58-1.89,10.77,18.46.07.11s1.97,3.04,1.16,6.15c-.53,2.04-2.19,3.8-4.93,5.22l-32.95,19.27,8.79-16.58c.57-1.08.15-2.43-.95-3.02-1.1-.58-2.45-.18-3.03.91l-8.24,15.55s.08-36.99,0-37.92c.2-1.42.72-2.61,1.55-3.55ZM28.25,23.29l10.85-18.57,21.43,1.88h.13s3.96.16,6.2,2.71c.83.94,1.34,2.13,1.55,3.55-.09.93,0,39.06,0,39.06l-9.86-15.93c-.64-1.04-2.03-1.35-3.08-.7-1.05.65-1.39,2.03-.75,3.07l9.28,14.99-31.97-18.7c-2.74-1.42-4.4-3.17-4.93-5.22-.8-3.07,1.1-6.05,1.16-6.14ZM22.76,82.86c-3.42-.85-5.42-4.32-5.43-4.34l-12.01-18.67,11.93-18.54.07-.12s2.02-3.5,5.44-4.35c2.02-.5,4.24,0,6.68,1.55l32.9,19.2h-18.34c-1.22,0-2.22,1.01-2.22,2.25s.99,2.25,2.22,2.25h18.37l-33,19.26c-2.37,1.5-4.59,2.01-6.61,1.51ZM66.86,110.39c-2.24,2.54-6.16,2.7-6.19,2.7l-21.58,1.89-10.77-18.46-.07-.11s-1.97-3.04-1.16-6.15c.53-2.04,2.19-3.8,4.93-5.21l32.95-19.27-8.78,16.57c-.57,1.08-.15,2.43.95,3.02,1.1.58,2.45.18,3.03-.91l8.24-15.55s-.08,37,0,37.93c-.2,1.42-.72,2.62-1.55,3.55ZM70.66,65.64c-3.2,0-5.8-2.6-5.8-5.8s2.6-5.8,5.8-5.8,5.8,2.6,5.8,5.8-2.6,5.8-5.8,5.8ZM113.07,96.4l-10.85,18.57-21.43-1.88h-.13s-3.96-.16-6.2-2.71c-.83-.94-1.34-2.13-1.55-3.55.09-.93,0-39.07,0-39.07l9.86,15.93c.64,1.04,2.03,1.35,3.08.7,1.05-.65,1.39-2.03.75-3.07l-9.27-14.97,31.96,18.69c2.74,1.42,4.4,3.17,4.93,5.21.8,3.07-1.1,6.06-1.16,6.14ZM124.06,78.39l-.07.12s-2.02,3.5-5.44,4.35c-2.02.5-4.24,0-6.68-1.55l-32.92-19.21h18.36c1.22,0,2.22-1.01,2.22-2.25s-.99-2.25-2.22-2.25h-18.35l32.98-19.25c2.37-1.5,4.59-2.01,6.61-1.5,3.42.85,5.42,4.32,5.43,4.34l12.01,18.67-11.93,18.54Z"/>
  </g>
</svg>