<?xml version="1.0" encoding="UTF-8"?>
<svg id="Layer_2" data-name="Layer 2" xmlns="http://www.w3.org/2000/svg" viewBox="0 0 195.99 48.26">
  <defs>
    <style>
      .cls-1 {
        fill: #fff;
      }

      .cls-2 {
        fill: #07ab4d;
      }
    </style>
  </defs>
  <g id="Layer_1-2" data-name="Layer 1">
    <g>
      <rect class="cls-2" x="0" width="195.99" height="48.26"/>
      <path class="cls-1" d="M90.26,33.67c0,3.02-1.02,4.53-2.28,4.77-.2.03-.4.03-.61,0-1.31-.16-2.89-1.52-2.86-4.06,0-4.93,1.33-5.96,2.86-6.59.98-.36,2.01-.62,2.89-1.47v7.36ZM96.59,23.7c0-5.53-2.77-7.1-8.24-7.1-.33,0-.64,0-.98.03-1.99.15-4.05.68-5.87,1.58v6.86h1.55c.74-2.14,1.89-6.9,4.32-7.44.18-.05.34-.09.51-.09,2.08,0,2.44,1.63,2.44,3.63v3.78c-.47.74-1.57,1.14-2.95,1.55-3.35,1-8.27,1.88-8.27,7.36,0,3.62,2.88,6.23,6.55,6.23.66,0,1.23-.06,1.72-.21,1.6-.42,2.74-1.46,3.52-3.61h.06v3.13h7.46v-.94h-1.82v-14.74h0ZM57.68,31.21c0,5.78-.55,7.44-2.33,7.44-.33,0-.61-.04-.93-.14-1.65-.55-3.3-2.87-3.3-9.69.03-6.89,1.65-9.9,3.3-10.69.28-.12.57-.17.85-.17,1.26,0,2.44,1.2,2.41,4.82v8.44ZM63.83,9.26h-8.12v.96h2v7.99h-.1c-.45-.77-1.76-1.64-3.09-1.64h-.11c-4.91.05-8.39,5.92-8.41,11.96,0,5.83,3.47,11.51,8.06,11.51h.35c2.14-.12,3.05-1.42,3.61-2.61h.09v1.93h7.09v-.95h-1.37V9.26h0ZM11.59,10.19h2.01l-.02,28.18h-2.02v.95h11.01v-.95h-2l.02-28.18h2.02v-.96h-11v.96ZM42.59,23.45c0-4.2-1.71-6.88-5.34-6.88-2.3,0-4.69,1.57-5.44,4.04h-.08v-3.34l-7.67-.04v.94l1.85.04-.02,20.15h-1.82v.95l9.13.05v-1h-1.15v-12.93c0-4.02.83-6.81,2.84-6.78,1.09,0,1.53,1.1,1.53,2.98v16.78h-1.14v.95h9.13v-.95h-1.83v-14.96ZM75.22,17.29h-7.98v.95h1.82v20.17h-1.85v.98h9.84v-.95h-1.87l.04-21.15ZM72.13,15.71c1.73,0,3.16-1.59,3.16-3.57s-1.4-3.54-3.16-3.54-3.14,1.58-3.14,3.54,1.41,3.57,3.14,3.57M140.89,17.32h-7.31v.97h1.17v12.96c0,4.02-.83,6.77-2.79,6.77-1.12,0-1.57-1.11-1.57-2.98v-17.72h-7.31v.97h1.17v14.96c-.01,4.15,1.7,6.88,5.32,6.88,2.29,0,4.7-1.61,5.44-4.05h.12v3.35h7.62v-.95h-1.86l.02-21.16ZM152.44,9.37l-8-.03v.95h1.84v28.18h-1.87v.94l9.85.04v-.94h-1.85l.03-29.14ZM163.9,9.37h-7.99v.96h1.83v28.18h-1.86v.94h9.86v-.94h-1.86l.03-29.14ZM172.1,20.61c0-1.41,1.16-2.98,3.44-2.98,3.48.03,4.58,2.95,5.77,7.03h1.5l.03-6.23c-2.12-1.05-4.43-1.72-6.77-1.76-5.09,0-8.21,3.27-8.21,7.4,0,8.91,12.32,6.21,12.32,11.92,0,2.24-1.6,3.21-4.22,3.21-4.3,0-4.72-4.04-5.94-7.73h-1.83v6.64c2.33,1.47,5.38,2.05,7.38,2.05,6.3,0,8.85-4.04,8.85-7.95,0-8.47-12.33-6.26-12.33-11.6"/>
      <path class="cls-1" d="M112.04,38.57c-.32.11-.6.15-.93.15-1.78,0-2.33-1.66-2.33-7.43v-8.43c-.03-3.62,1.14-4.83,2.41-4.83.28,0,.57.07.85.18,1.66.79,3.26,3.81,3.3,10.7,0,6.81-1.64,9.14-3.3,9.68M112.04,16.64h-.11c-1.33,0-2.64.87-3.08,1.64h-.11v-8.95h-6.1s-2.02,0-2.02,0v.96h2v28.18h-1.37v.96h7.09v-1.92h.08c.55,1.18,1.46,2.48,3.6,2.61h.35c4.6,0,8.06-5.68,8.06-11.52-.02-6.03-3.5-11.91-8.41-11.95"/>
    </g>
  </g>
</svg>