<?xml version="1.0" encoding="UTF-8"?>
<svg id="Layer_2" data-name="Layer 2" xmlns="http://www.w3.org/2000/svg" viewBox="0 0 366.52 154.52">
  <defs>
    <style>
      .cls-1 {
        fill: #5c9040;
        font-family: Poppins-SemiBold, Poppins;
        font-size: 58.16px;
        font-weight: 600;
        letter-spacing: -.02em;
      }

      .cls-2 {
        fill: #636466;
      }

      .cls-3 {
        fill: #84ae40;
      }
    </style>
  </defs>
  <g id="Layer_1-2" data-name="Layer 1">
    <g>
      <path class="cls-2" d="M201.8,16.23c0,1.95-.66,2.93-1.48,3.08-.13.02-.26.02-.4,0-.85-.1-1.87-.99-1.85-2.63,0-3.19.86-3.86,1.85-4.27.63-.24,1.3-.4,1.87-.95v4.76ZM205.9,9.77c0-3.58-1.8-4.6-5.33-4.6-.21,0-.41,0-.63.02-1.29.1-2.62.44-3.8,1.03v4.44h1c.48-1.39,1.22-4.46,2.8-4.82.12-.03.22-.06.33-.06,1.34,0,1.58,1.05,1.58,2.35v2.45c-.31.48-1.02.74-1.91,1-2.17.64-5.35,1.21-5.35,4.76,0,2.34,1.86,4.03,4.24,4.03.43,0,.79-.04,1.12-.14,1.03-.27,1.77-.95,2.28-2.34h.04v2.02h4.83v-.61h-1.18v-9.54h0ZM180.72,14.63c0,3.74-.36,4.82-1.51,4.82-.21,0-.39-.02-.6-.09-1.07-.36-2.13-1.86-2.13-6.27.02-4.46,1.07-6.41,2.13-6.92.18-.08.37-.11.55-.11.82,0,1.58.78,1.56,3.12v5.46h0ZM184.7.43h-5.26v.62h1.3v5.17h-.06c-.29-.5-1.14-1.06-2-1.06h-.07c-3.18.03-5.43,3.83-5.44,7.74,0,3.78,2.25,7.45,5.22,7.45h.23c1.39-.08,1.98-.92,2.33-1.69h.05v1.25h4.59v-.61h-.88V.43ZM150.89,1.03h1.3v18.23h-1.32v.62h7.13v-.62h-1.3V1.03h1.32V.4h-7.12v.62ZM170.95,9.61c0-2.72-1.11-4.45-3.46-4.45-1.49,0-3.04,1.02-3.52,2.61h-.05v-2.16l-4.96-.03v.61l1.19.02-.02,13.04h-1.18v.62l5.91.03v-.64h-.74v-8.37c0-2.6.54-4.41,1.84-4.39.71,0,.99.71.99,1.93v10.86h-.74v.61h5.91v-.61h-1.18v-9.68ZM192.07,5.62h-5.17v.61h1.17v13.05h-1.19v.63h6.37v-.61h-1.21l.02-13.69ZM190.07,4.6c1.12,0,2.05-1.03,2.05-2.31s-.91-2.29-2.05-2.29-2.03,1.03-2.03,2.29.92,2.31,2.03,2.31M234.57,5.64h-4.73v.63h.76v8.38c0,2.6-.53,4.38-1.81,4.38-.72,0-1.02-.71-1.02-1.93V5.64h-4.73v.63h.75v9.68c0,2.69,1.1,4.45,3.44,4.45,1.48,0,3.04-1.04,3.52-2.62h.08v2.17h4.93v-.62h-1.2V5.64ZM242.04.5l-5.18-.02v.62h1.19v18.24h-1.21v.61l6.38.02v-.61h-1.2l.02-18.86ZM249.46.5h-5.17v.62h1.18v18.23h-1.2v.61h6.38v-.61h-1.21l.02-18.86ZM254.77,7.77c0-.91.75-1.93,2.23-1.93,2.25.02,2.97,1.91,3.74,4.55h.97l.02-4.03c-1.37-.68-2.87-1.11-4.38-1.14-3.29,0-5.31,2.12-5.31,4.79,0,5.76,7.97,4.02,7.97,7.71,0,1.45-1.04,2.08-2.73,2.08-2.78,0-3.05-2.61-3.84-5h-1.19v4.3c1.51.95,3.48,1.33,4.78,1.33,4.08,0,5.73-2.62,5.73-5.15,0-5.48-7.98-4.05-7.98-7.5"/>
      <path class="cls-2" d="M215.9,19.4c-.21.07-.39.09-.61.09-1.15,0-1.5-1.08-1.5-4.81v-5.46c-.02-2.34.74-3.12,1.56-3.12.18,0,.37.04.55.11,1.07.51,2.11,2.46,2.14,6.92,0,4.41-1.06,5.91-2.14,6.27M215.9,5.2h-.07c-.86,0-1.71.57-1.99,1.06h-.07V.47h-3.95s-1.31,0-1.31,0v.62h1.3v18.24h-.89v.62h4.59v-1.25h.05c.36.77.95,1.6,2.33,1.69h.23c2.97,0,5.22-3.68,5.22-7.45-.01-3.9-2.26-7.71-5.44-7.74"/>
    </g>
    <g>
      <path class="cls-3" d="M127.86,39.24c-.39-.67-3.16-5.15-8.16-6.42-.58-.15-1.16-.23-1.75-.28.25-.55.47-1.12.62-1.72,1.22-4.77-1.33-8.99-1.74-9.63L104.44.34l-23.98,2.1c-.77.03-5.96.4-9.32,4.17-.17.19-.32.4-.48.6-.16-.2-.31-.41-.48-.6-3.36-3.77-8.55-4.13-9.32-4.17L36.42.31l-11.93,20.88c-.41.64-2.95,4.87-1.74,9.63.15.59.37,1.16.62,1.72-.59.05-1.17.13-1.75.28-5,1.27-7.77,5.75-8.16,6.42L0,60.15l13.46,20.91c.39.67,3.16,5.15,8.16,6.42.58.15,1.16.23,1.75.28-.25.56-.47,1.12-.62,1.72-1.22,4.77,1.33,8.99,1.74,9.63l12.07,20.87,24.3-2.13c.77-.03,5.96-.4,9.32-4.17.17-.19.32-.4.48-.6.16.2.31.41.48.6,3.36,3.77,8.55,4.13,9.32,4.17l23.83,2.09,12.55-20.82c.41-.64,2.95-4.87,1.74-9.63-.15-.59-.37-1.16-.62-1.72.59-.05,1.17-.13,1.75-.28,5-1.27,7.77-5.75,8.16-6.42l13.46-20.92-13.46-20.91ZM74.46,9.61c2.24-2.54,6.16-2.7,6.19-2.7l21.58-1.89,10.77,18.46.07.11s1.97,3.04,1.16,6.15c-.53,2.04-2.19,3.8-4.93,5.22l-32.95,19.27,8.79-16.58c.57-1.08.15-2.43-.95-3.02-1.1-.58-2.45-.18-3.03.91l-8.24,15.55s.08-36.99,0-37.92c.2-1.42.72-2.61,1.55-3.55ZM28.25,23.6l10.85-18.57,21.43,1.88h.13s3.96.16,6.2,2.71c.83.94,1.34,2.13,1.55,3.55-.09.93,0,39.06,0,39.06l-9.86-15.93c-.64-1.04-2.03-1.35-3.08-.7-1.05.65-1.39,2.03-.75,3.07l9.28,14.99-31.97-18.7c-2.74-1.42-4.4-3.17-4.93-5.22-.8-3.07,1.1-6.05,1.16-6.14ZM22.76,83.16c-3.42-.85-5.42-4.32-5.43-4.34l-12.01-18.67,11.93-18.54.07-.12s2.02-3.5,5.44-4.35c2.02-.5,4.24,0,6.68,1.55l32.9,19.2h-18.34c-1.22,0-2.22,1.01-2.22,2.25s.99,2.25,2.22,2.25h18.37l-33,19.26c-2.37,1.5-4.59,2.01-6.61,1.51ZM66.86,110.69c-2.24,2.54-6.16,2.7-6.19,2.7l-21.58,1.89-10.77-18.46-.07-.11s-1.97-3.04-1.16-6.15c.53-2.04,2.19-3.8,4.93-5.21l32.95-19.27-8.78,16.57c-.57,1.08-.15,2.43.95,3.02,1.1.58,2.45.18,3.03-.91l8.24-15.55s-.08,37,0,37.93c-.2,1.42-.72,2.62-1.55,3.55ZM70.66,65.95c-3.2,0-5.8-2.6-5.8-5.8s2.6-5.8,5.8-5.8,5.8,2.6,5.8,5.8-2.6,5.8-5.8,5.8ZM113.07,96.7l-10.85,18.57-21.43-1.88h-.13s-3.96-.16-6.2-2.71c-.83-.94-1.34-2.13-1.55-3.55.09-.93,0-39.07,0-39.07l9.86,15.93c.64,1.04,2.03,1.35,3.08.7,1.05-.65,1.39-2.03.75-3.07l-9.27-14.97,31.96,18.69c2.74,1.42,4.4,3.17,4.93,5.21.8,3.07-1.1,6.06-1.16,6.14ZM124.06,78.69l-.07.12s-2.02,3.5-5.44,4.35c-2.02.5-4.24,0-6.68-1.55l-32.92-19.21h18.36c1.22,0,2.22-1.01,2.22-2.25s-.99-2.25-2.22-2.25h-18.35l32.98-19.25c2.37-1.5,4.59-2.01,6.61-1.5,3.42.85,5.42,4.32,5.43,4.34l12.01,18.67-11.93,18.54Z"/>
      <text class="cls-1" transform="translate(149.43 66.65)"><tspan x="0" y="0">green</tspan><tspan x="0" y="53.38">avenue</tspan></text>
    </g>
  </g>
</svg>