<?xml version="1.0" encoding="UTF-8"?>
<svg id="Layer_2" data-name="Layer 2" xmlns="http://www.w3.org/2000/svg" viewBox="0 0 16.97 16.97">
  <defs>
    <style>
      .cls-1 {
        fill: #fff;
      }
    </style>
  </defs>
  <g id="Layer_1-2" data-name="Layer 1">
    <path class="cls-1" d="M12.88,0H4.1C1.83,0,0,1.83,0,4.1v8.78c0,2.26,1.83,4.1,4.1,4.1h8.78c2.26,0,4.1-1.83,4.1-4.1V4.1c0-2.26-1.83-4.1-4.1-4.1M15.51,12.58c0,1.62-1.31,2.93-2.93,2.93H4.39c-1.62,0-2.93-1.31-2.93-2.93V4.39c0-1.62,1.31-2.93,2.93-2.93h8.19c1.61,0,2.93,1.31,2.93,2.93v8.19Z"/>
    <path class="cls-1" d="M8.49,4.1c-2.42,0-4.39,1.97-4.39,4.39s1.97,4.39,4.39,4.39,4.39-1.97,4.39-4.39-1.97-4.39-4.39-4.39M8.49,11.41c-1.61,0-2.93-1.31-2.93-2.93s1.31-2.93,2.93-2.93,2.93,1.31,2.93,2.93-1.31,2.93-2.93,2.93"/>
  </g>
</svg>