<?xml version="1.0" encoding="UTF-8"?>
<svg id="Layer_2" data-name="Layer 2" xmlns="http://www.w3.org/2000/svg" viewBox="0 0 15.63 15.97">
  <defs>
    <style>
      .cls-1 {
        fill: #fff;
      }
    </style>
  </defs>
  <g id="Layer_1-2" data-name="Layer 1">
    <path class="cls-1" d="M2.08,4.17c1.15,0,2.08-.93,2.08-2.08S3.23,0,2.08,0,0,.93,0,2.08s.93,2.08,2.08,2.08"/>
    <path class="cls-1" d="M3.67,5.56H.5c-.09,0-.15.07-.15.16v10.11c0,.09.07.15.15.15h3.16c.09,0,.16-.07.16-.15V5.71c0-.08-.07-.16-.16-.16"/>
    <path class="cls-1" d="M15.63,9.38v5.9c0,.38-.31.7-.69.7h-2.08c-.38,0-.69-.31-.69-.7v-4.86c0-.96-.78-1.74-1.74-1.74s-1.74.78-1.74,1.74v4.86c0,.38-.31.7-.69.7h-2.08c-.38,0-.69-.31-.69-.7V6.25c0-.38.31-.69.69-.69h2.08c.38,0,.69.31.69.69v.44c.7-.9,1.84-1.49,3.12-1.49,1.92,0,3.82,1.39,3.82,4.17"/>
  </g>
</svg>