<?xml version="1.0" encoding="UTF-8"?>
<svg id="Layer_2" data-name="Layer 2" xmlns="http://www.w3.org/2000/svg" viewBox="0 0 166.34 40.96">
  <defs>
    <style>
      .cls-1 {
        fill: #fff;
      }

      .cls-2 {
        fill: #07ab4d;
      }
    </style>
  </defs>
  <g id="Layer_1-2" data-name="Layer 1">
    <g>
      <rect class="cls-1" x="0" width="166.34" height="40.96"/>
      <path class="cls-2" d="M76.61,28.58c0,2.56-.87,3.84-1.94,4.04-.17.03-.34.03-.52,0-1.11-.13-2.45-1.29-2.43-3.45,0-4.18,1.13-5.06,2.43-5.59.83-.31,1.71-.53,2.46-1.25v6.25ZM81.98,20.11c0-4.69-2.35-6.03-6.99-6.03-.28,0-.54,0-.83.02-1.69.13-3.44.58-4.98,1.34v5.82h1.31c.63-1.82,1.61-5.85,3.67-6.32.15-.04.29-.08.43-.08,1.76,0,2.07,1.38,2.07,3.08v3.21c-.4.63-1.33.97-2.5,1.31-2.85.85-7.02,1.59-7.02,6.25,0,3.07,2.44,5.28,5.56,5.28.56,0,1.04-.05,1.46-.18,1.35-.36,2.32-1.24,2.99-3.06h.05v2.66h6.33v-.8h-1.55v-12.51h0ZM48.95,26.49c0,4.9-.47,6.31-1.98,6.31-.28,0-.51-.03-.79-.12-1.4-.46-2.8-2.44-2.8-8.22.03-5.84,1.4-8.41,2.8-9.07.24-.1.49-.15.72-.15,1.07,0,2.07,1.02,2.05,4.09v7.16ZM54.17,7.86h-6.9v.81h1.7v6.78h-.08c-.38-.65-1.49-1.39-2.62-1.39h-.09c-4.17.04-7.12,5.03-7.14,10.15,0,4.95,2.95,9.77,6.84,9.77h.3c1.82-.1,2.59-1.21,3.06-2.21h.07v1.63h6.02v-.81h-1.16V7.86h0ZM9.84,8.64h1.7l-.02,23.91h-1.72v.81h9.34v-.81h-1.7V8.64h1.73v-.81h-9.34v.81ZM36.15,19.9c0-3.56-1.45-5.84-4.53-5.84-1.96,0-3.99,1.33-4.62,3.43h-.07v-2.84l-6.5-.03v.8l1.57.03-.02,17.1h-1.55v.81l7.75.04v-.85h-.97v-10.97c0-3.41.7-5.78,2.41-5.75.93,0,1.3.93,1.3,2.52v14.24h-.97v.81h7.75v-.81h-1.55v-12.7ZM63.84,14.67h-6.77v.8h1.54v17.12h-1.57v.83h8.36v-.8h-1.59l.03-17.95ZM61.22,13.33c1.47,0,2.68-1.35,2.68-3.03s-1.19-3-2.68-3-2.66,1.34-2.66,3,1.2,3.03,2.66,3.03M119.57,14.7h-6.21v.82h.99v11c0,3.41-.7,5.75-2.37,5.75-.95,0-1.34-.94-1.34-2.53v-15.04h-6.21v.82h.99v12.69c-.01,3.52,1.44,5.84,4.51,5.84,1.94,0,3.99-1.37,4.61-3.44h.1v2.85h6.47v-.81h-1.58V14.7ZM129.38,7.95l-6.79-.02v.81h1.56v23.92h-1.59v.8l8.36.03v-.8h-1.57l.03-24.73ZM139.11,7.95h-6.78v.82h1.55v23.91h-1.58v.8h8.36v-.8h-1.58l.03-24.73ZM146.07,17.49c0-1.19.99-2.53,2.92-2.53,2.95.03,3.89,2.51,4.9,5.97h1.28l.03-5.29c-1.8-.89-3.76-1.46-5.74-1.49-4.32,0-6.97,2.78-6.97,6.28,0,7.56,10.45,5.27,10.45,10.11,0,1.91-1.36,2.72-3.58,2.72-3.65,0-4.01-3.42-5.04-6.56h-1.56v5.63c1.98,1.25,4.57,1.74,6.26,1.74,5.35,0,7.51-3.43,7.51-6.75,0-7.19-10.47-5.31-10.47-9.84"/>
      <path class="cls-2" d="M95.09,32.74c-.28.1-.51.12-.79.12-1.51,0-1.98-1.41-1.98-6.31v-7.16c-.03-3.07.97-4.1,2.05-4.1.24,0,.49.06.72.15,1.41.67,2.77,3.23,2.8,9.08,0,5.78-1.4,7.75-2.8,8.21M95.09,14.12h-.09c-1.13,0-2.24.74-2.61,1.39h-.09v-7.59h-5.18s-1.72,0-1.72,0v.82h1.7v23.92h-1.16v.81h6.02v-1.63h.07c.47,1,1.24,2.1,3.06,2.21h.3c3.9,0,6.84-4.82,6.84-9.77-.02-5.12-2.97-10.11-7.14-10.15"/>
    </g>
  </g>
</svg>