<?xml version="1.0" encoding="UTF-8"?>
<svg id="Layer_2" data-name="Layer 2" xmlns="http://www.w3.org/2000/svg" xmlns:xlink="http://www.w3.org/1999/xlink" viewBox="0 0 284.51 240.96">
  <defs>
    <style>
      .cls-1 {
        fill: #fff;
      }

      .cls-2 {
        filter: url(#drop-shadow-1);
      }
    </style>
    <filter id="drop-shadow-1" x="-16.89" y="-16.82" width="347" height="303" filterUnits="userSpaceOnUse">
      <feOffset dx="14.09" dy="14.09"/>
      <feGaussianBlur result="blur" stdDeviation="10.07"/>
      <feFlood flood-color="#000" flood-opacity=".75"/>
      <feComposite in2="blur" operator="in"/>
      <feComposite in="SourceGraphic"/>
    </filter>
  </defs>
  <g id="Layer_1-2" data-name="Layer 1">
    <g class="cls-2">
      <path class="cls-1" d="M257.42,78.38c-.79-1.36-6.36-10.36-16.44-12.93-1.16-.3-2.34-.46-3.51-.57.5-1.12.94-2.26,1.25-3.46,2.45-9.6-2.67-18.11-3.5-19.4L210.26.08l-48.28,4.23c-1.55.07-12,.8-18.76,8.39-.35.39-.65.8-.96,1.21-.31-.41-.62-.82-.96-1.21-6.77-7.59-17.21-8.32-18.76-8.39L73.32,0l-24.02,42.03c-.83,1.29-5.95,9.8-3.5,19.4.31,1.2.75,2.34,1.25,3.46-1.18.1-2.35.27-3.52.57-10.07,2.56-15.65,11.57-16.43,12.93L0,120.49l27.1,42.1c.79,1.36,6.36,10.36,16.43,12.93,1.16.3,2.34.46,3.52.57-.5,1.12-.95,2.26-1.25,3.46-2.45,9.6,2.67,18.11,3.5,19.4l24.3,42.01,48.93-4.29c1.55-.07,12-.8,18.76-8.39.35-.39.65-.8.96-1.21.31.41.62.82.96,1.21,6.76,7.59,17.21,8.32,18.76,8.39l47.98,4.2,25.26-41.92c.83-1.29,5.95-9.8,3.5-19.4-.31-1.2-.75-2.34-1.25-3.46,1.18-.11,2.35-.27,3.52-.57,10.07-2.57,15.65-11.57,16.44-12.93l27.1-42.11-27.1-42.1ZM149.9,18.73c4.52-5.12,12.4-5.43,12.46-5.43l43.44-3.8,21.69,37.16.14.23c.04.06,3.97,6.12,2.34,12.37-1.07,4.12-4.41,7.65-9.93,10.5l-66.34,38.8,17.7-33.38c1.15-2.18.29-4.9-1.92-6.07-2.21-1.17-4.94-.35-6.09,1.82l-16.6,31.3s.17-74.48,0-76.35c.41-2.87,1.44-5.26,3.11-7.15ZM56.87,46.9l21.84-37.39,43.15,3.78.27.02c.08,0,7.96.31,12.48,5.43,1.67,1.89,2.7,4.29,3.11,7.16-.18,1.88,0,78.64,0,78.64l-19.85-32.07c-1.3-2.1-4.08-2.73-6.21-1.41-2.12,1.31-2.8,4.09-1.5,6.18l18.68,30.18-64.37-37.65c-5.51-2.85-8.85-6.38-9.92-10.5-1.61-6.18,2.21-12.17,2.33-12.37ZM45.82,166.82c-6.88-1.72-10.9-8.69-10.93-8.74l-24.18-37.58,24.03-37.33.14-.23c.04-.07,4.06-7.04,10.94-8.76,4.07-1.01,8.54,0,13.45,3.12l66.25,38.66h-36.93c-2.46,0-4.47,2.04-4.47,4.54s2,4.53,4.47,4.53h36.98l-66.44,38.77c-4.77,3.02-9.24,4.04-13.31,3.03ZM134.61,222.25c-4.52,5.12-12.4,5.43-12.46,5.43l-43.44,3.8-21.69-37.16-.14-.23c-.04-.06-3.97-6.12-2.34-12.37,1.07-4.12,4.41-7.65,9.92-10.5l66.33-38.79-17.68,33.35c-1.15,2.18-.29,4.9,1.92,6.07,2.21,1.17,4.94.35,6.09-1.82l16.59-31.3s-.17,74.49,0,76.37c-.41,2.87-1.44,5.26-3.11,7.16ZM142.26,132.16c-6.45,0-11.68-5.23-11.68-11.68s5.23-11.68,11.68-11.68,11.68,5.23,11.68,11.68-5.23,11.68-11.68,11.68ZM227.64,194.08l-21.84,37.39-43.15-3.78-.27-.02c-.08,0-7.96-.31-12.48-5.43-1.67-1.89-2.7-4.29-3.11-7.15.18-1.88,0-78.67,0-78.67l19.85,32.07c1.3,2.1,4.08,2.73,6.21,1.41,2.12-1.31,2.8-4.09,1.5-6.18l-18.66-30.15,64.35,37.63c5.51,2.85,8.85,6.38,9.92,10.5,1.62,6.19-2.22,12.19-2.33,12.37ZM249.78,157.82l-.14.23c-.04.07-4.06,7.04-10.94,8.76-4.07,1.01-8.54,0-13.46-3.12l-66.28-38.69h36.96c2.46,0,4.47-2.04,4.47-4.54s-2-4.53-4.47-4.53h-36.94l66.4-38.75c4.76-3.03,9.24-4.05,13.31-3.03,6.89,1.72,10.91,8.69,10.94,8.74l24.18,37.58-24.03,37.34Z"/>
    </g>
  </g>
</svg>